<svg xmlns="http://www.w3.org/2000/svg" viewBox="0 0 512 512" width="512" height="512">
  <!-- Background -->
  <rect width="512" height="512" fill="#2563eb" rx="80"/>
  
  <!-- German flag stripes -->
  <rect x="50" y="150" width="412" height="40" fill="#000000"/>
  <rect x="50" y="190" width="412" height="40" fill="#DD0000"/>
  <rect x="50" y="230" width="412" height="40" fill="#FFCE00"/>
  
  <!-- Book/App Icon -->
  <rect x="180" y="300" width="152" height="120" fill="#ffffff" rx="12"/>
  <rect x="190" y="310" width="132" height="100" fill="#f8fafc" rx="8"/>
  
  <!-- Text lines -->
  <line x1="200" y1="330" x2="310" y2="330" stroke="#2563eb" stroke-width="3"/>
  <line x1="200" y1="350" x2="290" y2="350" stroke="#64748b" stroke-width="2"/>
  <line x1="200" y1="370" x2="300" y2="370" stroke="#64748b" stroke-width="2"/>
  <line x1="200" y1="390" x2="280" y2="390" stroke="#64748b" stroke-width="2"/>
  
  <!-- Audio/Sound waves -->
  <circle cx="120" cy="360" r="8" fill="#10b981"/>
  <path d="M 135 352 Q 150 360 135 368" stroke="#10b981" stroke-width="3" fill="none"/>
  <path d="M 145 344 Q 165 360 145 376" stroke="#10b981" stroke-width="2" fill="none"/>
  
  <!-- VIM text -->
  <text x="256" y="100" text-anchor="middle" fill="#ffffff" font-family="Arial, sans-serif" font-size="48" font-weight="bold">VIM</text>
  <text x="256" y="130" text-anchor="middle" fill="#e2e8f0" font-family="Arial, sans-serif" font-size="20" font-weight="normal">German A1</text>
  
  <!-- Decorative elements -->
  <circle cx="80" cy="80" r="12" fill="rgba(255,255,255,0.2)"/>
  <circle cx="432" cy="80" r="8" fill="rgba(255,255,255,0.15)"/>
  <circle cx="432" cy="432" r="12" fill="rgba(255,255,255,0.2)"/>
  <circle cx="80" cy="432" r="8" fill="rgba(255,255,255,0.15)"/>
</svg>